<svg id="Слой_1" xmlns="http://www.w3.org/2000/svg" viewBox="0 0 51.6 50"><style>.st0{fill:#834648}</style><path class="st0" d="M36.2 32.8c2.8 0 5.1.1 7.4 0 5.2-.4 7.3-3.9 5.9-9-1.4-5.4-2.4-11-3.6-16.5-.9-4.1-3.5-5.9-7.8-6.2-7.3-.6-13.9 2.4-20.7 4.1-2 .5-1.8 2.2-1.9 3.6-.1 5.5 0 11 0 16.5 0 1.8.9 2.8 2.3 4.1 4.6 4 9.1 8.3 10.3 14.7.5 2.6 1.5 4.4 4.5 4.2 3-.3 5.1-1.8 5.5-4.8.6-3.6.4-7.1-1.9-10.7zm-22.8-4.6c1.9-7 .5-14.1.8-21.1.1-1.7-1.4-1.9-2.9-2-9.8-1-10.2-.8-10 8.9.1 4.7-1.1 9.5.8 14.1 3.7.8 7.5.7 11.3.1z"/><path class="st0" d="M13.4 28.2c-3.8 0-7.6-.1-11.3-.1 3.7 1.7 7.5 1.5 11.3.1z"/></svg>