<svg xmlns="http://www.w3.org/2000/svg" viewBox="0 0 30.4 24.1"><path d="M29 10c0 .2-.1.4-.1.6-.4 1.5-1.7 2.7-3.2 2.9-1.7.3-3.3-.5-4.2-2-.6-1.1-.7-2.3-.2-3.5.7-1.6 2.1-2.5 3.8-2.5 1.5.1 2.7.8 3.4 2.2.2.4.3.8.4 1.2.1.1.1.1.1.2v.9zm-6.1-.4c0 1.2 1 2.1 2.1 2.1 1.2 0 2.1-1 2.1-2.1s-1-2.1-2.1-2.1c-1.1-.1-2.1.9-2.1 2.1zm-21.6.6c.1-.3.1-.5.2-.8C2 7.9 3.1 7 4.6 6.8c1.7-.3 3.1.4 4 1.9 1.2 1.9.5 4.6-1.6 5.7-1.8.9-4.1.3-5.2-1.4-.3-.4-.5-.9-.6-1.5 0-.1 0-.1-.1-.2.2-.5.2-.8.2-1.1zm3.9 2.6c1.1 0 2.1-.9 2.1-2.1 0-1.2-.9-2.1-2-2.2-1.1 0-2.1.9-2.2 2.1 0 1.2 1 2.2 2.1 2.2zm9.9 6.7c-2.2 0-4-1.8-4-4s1.8-4 4-4 4 1.8 4 4-1.8 4-4 4zm2-4c0-1.2-.9-2.1-2.1-2.1-1.2 0-2.1.9-2.1 2.1 0 1.1 1 2.1 2.1 2.1 1.2 0 2.1-1 2.1-2.1zM13.7 1.4h2.8v9.9c-.9-.4-1.8-.4-2.8 0V1.4zm9.9 12.3c.9.4 1.8.4 2.7-.1v9.7h-2.7v-9.6z"/><path d="M6.6 23.3H3.9v-8.5c1.5.4 1.8.4 2.7-.1v8.6zM3.9 1.4h2.7v5.1c-.9-.4-1.8-.4-2.7 0V1.4zm19.7 4v-4h2.8v4c-.9-.4-1.8-.4-2.8 0zm-9.9 14.2c.9.4 1.8.5 2.8-.1v3.8h-2.8v-3.7z"/></svg>