<svg xmlns="http://www.w3.org/2000/svg" viewBox="0 0 13.5 11.9"><path d="M6.7 11.9c-1.3-1-2.7-1.9-4-3C1.7 8.1.9 7.1.4 5.8c-.4-1-.5-1.9-.3-3C.5 1.2 2.2-.1 4 0c1 .1 1.9.5 2.6 1.2l.1.1c.3-.2.6-.4.9-.7C9.8-.9 13 .4 13.4 3.1c.2 1.3-.1 2.5-.8 3.6-.6 1-1.4 1.9-2.4 2.6-1 .7-1.9 1.4-2.9 2.1-.2.1-.4.3-.6.5zm0-9.4c-.1-.2-.2-.3-.3-.5C5.6.8 4.1.3 2.8.8 1.6 1.3.8 2.2.7 3.5c-.1.9.1 1.7.5 2.5.5 1 1.3 1.9 2.2 2.6 1 .8 2 1.5 3 2.2.4.3.4.3.7 0 1-.7 2-1.4 3-2.2.8-.7 1.6-1.6 2.2-2.6.4-.8.6-1.7.5-2.7C12.5 1.7 11 .5 9.4.7 8.4.8 7.6 1.2 7 2c-.1.2-.2.3-.3.5z"/></svg>