<svg xmlns="http://www.w3.org/2000/svg" viewBox="0 0 24.4 24.4"><path d="M1 13v-1.8c.1-1.2.4-2.3.9-3.4 1-2.2 2.5-4 4.6-5.2 1.2-.7 2.4-1.2 3.8-1.4.3-.1.7-.1 1.1-.2H13c.3 0 .5.1.8.1 1.8.3 3.5.9 5 2C22.5 6 24 9.8 23.2 14.4c-.2 1.4-.8 2.8-1.6 4-1.3 2-3 3.4-5.2 4.3-1.6.7-3.4.9-5.1.7-1.3-.1-2.4-.4-3.5-.9-2.2-1-4-2.5-5.2-4.6-.7-1.2-1.2-2.4-1.4-3.7-.1-.4-.1-.8-.2-1.2zm17.6-5.5c-.1-.1-.2-.1-.2-.2-.1-.2-.2-.2-.3-.2-.3 0-.4 0-.5-.4 0-.1-.1-.2-.2-.3 0-.1-.1-.1-.2-.2-.1-.3-.2-.3-.3-.2-.1.1-.3.2-.5.3h-.1c-.1-.1-.2-.1-.3-.2.1-.2 0-.4-.1-.5-.4-.2-.8-.4-1.2-.4-.3 0-.3.1-.2.3 0 .1.1.3 0 .4-.1.2-.1.3.1.4.3.2.3.3 0 .5l-.1.1c-.2.2-.3.3-.1.6 0 0 .1.1 0 .2-.1.2-.4.2-.6 0-.1-.2-.2-.4-.2-.5-.1-.1-.2-.2-.4-.2s-.4-.1-.5-.2c-.3-.2-.7-.3-1-.2-.1-.2-.2-.3-.3-.5-.1-.4.3-.8.5-1.1.3 0 .6 0 .8-.3.3-.4.3-.4.7-.3.1 0 .3 0 .3-.1v-.5c-.1-.2-.2-.2-.5-.1 0 .1-.1.2-.2.3-.2.3-.3.3-.5-.1-.1-.3-.1-.3-.3-.1-.2-.1-.3-.2-.5-.3.1-.1.1-.2-.1-.3-.1-.1-.2-.1-.3-.1h-.2c-.1 0-.2.1-.2.2 0 0 .1.1.1.2.2.1.3.2.5.3v.1c-.3.1-.5.2-.4.6H11c-.1-.1-.1-.3-.2-.4h-1c-.3 0-.4-.1-.3-.4 0-.1-.2-.3-.3-.3-.4.2-.8.3-1.2.5V4c.1 0 .1-.1.2-.1.2-.1.3-.1.5-.2.3-.1.4 0 .6.3-.3 0-.5 0-.7.2 0 .1 0 .2.1.2-.1 0-.2-.1-.2-.1-.4-.3-.6-.4-1-.2-1.3.7-2.3 1.7-3.1 3 0 .1-.1.1-.1.1.1.2.2.3.3.4.1.1.2.1.2.2s.1.2.2.3c.2.2.4.3.7.5v.2h-.2s-.1-.1-.2-.1c0 .1 0 .2.1.3v.3c-.1.5-.1.9 0 1.4.1.1.2.2.3.4.1.4.4.7.8.9.1.1.2.2.3.4.2.3.3.6.5.9 0 .1 0 .1.1.2 0 .1 0 .2.1.2.2.1.4.3.4.5 0 0 0 .1.1.1V14c-.1-.3-.3-.6-.5-.9-.1-.2-.2-.4-.2-.5l.1-.1c.1.1.2.1.3.2l.3.6c.2.2.3.4.5.6.1.1.1.2.2.3.1.2.3.5.3.9 0 .3.2.5.5.6.3.1.5.3.7.4.2.1.4.2.6.1.2-.1.4 0 .5.2.3.4.7.5 1 .5.2.3.4.6.6.8.2.2.4.2.6.5.1.2.3.1.4-.1v-.2h-.4c-.2-.1-.3-.4-.4-.6l.1-.1c.1 0 .1-.1.1-.2-.1-.2-.2-.5-.4-.8-.2.2-.3.2-.4.1-.1 0-.2.1-.3.1v-.2c.1-.3.2-.6.3-.8.1-.2 0-.3-.2-.3s-.3.2-.4.4c-.1.1-.1.3-.2.3-.2.1-.7 0-.9-.2-.2-.3-.3-.6-.3-1 0-.2.1-.5 0-.7 0-.2 0-.3.1-.4l.3-.3c.1-.1.4-.1.6-.1h.3v-.3c.1 0 .2.1.3.1.2-.1.4 0 .7.1.1 0 .2.1.3.1V13c.1.2.1.3.2.5.1.1.1.3.2.4 0 .1.1.1.2.1 0-.1.1-.1.1-.2v-.7l-.1-.1c-.2-.1-.3-.3-.1-.4.1-.1.3-.2.4-.3.2-.1.4-.2.5-.5 0-.1.1-.2.1-.3 0 0-.1-.1-.2-.1.1-.2.1-.3.2-.6.2.1.4.2.4 0 0-.3.2-.3.4-.3.2-.1.4-.1.4-.4 0-.1.1-.2.2-.2.3-.1.5-.2.8-.4.1-.2.2-.4.2-.5 0-.1-.2-.2-.2-.3.1 0 .2-.1.3-.1v-.1c-.1 0-.2-.1-.3-.1-.3 0-.6.2-.8.4.2-.6 1.3-.9 1.9-.6.1-.1.3-.2.5-.3.2-.1.3-.2.2-.4zm-4.7 13.9c2-.4 3.7-1.3 5.1-2.8-.2-.1-.3-.1-.5-.1-.1 0-.2-.1-.2-.1-.1-.3-.3-.4-.5-.5-.3-.3-.6-.3-.8-.1-.2-.1-.5-.2-.7-.4-.2-.1-.4-.2-.5 0 0-.3-.1-.3-.4-.2-.3.2-.6.3-.7.7-.1 0-.2-.1-.3-.1 0 .4.1.8.1 1.1 0 .2 0 .4-.2.6-.1.1-.2.2-.3.4-.1.2-.2.4 0 .5.1.1.1.2 0 .3-.2.3-.2.5-.1.7z"/></svg>