<?xml version="1.0" encoding="utf-8"?>
<!-- Generator: Adobe Illustrator 20.1.0, SVG Export Plug-In . SVG Version: 6.00 Build 0)  -->
<svg version="1.1" id="Слой_1" xmlns="http://www.w3.org/2000/svg" xmlns:xlink="http://www.w3.org/1999/xlink" x="0px" y="0px"
	 viewBox="0 0 51.6 50" style="enable-background:new 0 0 51.6 50;" xml:space="preserve">
<style type="text/css">
	.st0{fill:#834648;}
</style>
<g>
	<path class="st0" d="M36.2,32.8c2.8,0,5.1,0.1,7.4,0c5.2-0.4,7.3-3.9,5.9-9c-1.4-5.4-2.4-11-3.6-16.5c-0.9-4.1-3.5-5.9-7.8-6.2
		c-7.3-0.6-13.9,2.4-20.7,4.1c-2,0.5-1.8,2.2-1.9,3.6c-0.1,5.5,0,11,0,16.5c0,1.8,0.9,2.8,2.3,4.1c4.6,4,9.1,8.3,10.3,14.7
		c0.5,2.6,1.5,4.4,4.5,4.2c3-0.3,5.1-1.8,5.5-4.8C38.7,39.9,38.5,36.4,36.2,32.8z"/>
	<path class="st0" d="M13.4,28.2c1.9-7,0.5-14.1,0.8-21.1c0.1-1.7-1.4-1.9-2.9-2c-9.8-1-10.2-0.8-10,8.9c0.1,4.7-1.1,9.5,0.8,14.1
		C5.8,28.9,9.6,28.8,13.4,28.2z"/>
	<path class="st0" d="M13.4,28.2c-3.8,0-7.6-0.1-11.3-0.1C5.8,29.8,9.6,29.6,13.4,28.2z"/>
</g>
</svg>
