<?xml version="1.0" encoding="utf-8"?>
<!-- Generator: Adobe Illustrator 20.1.0, SVG Export Plug-In . SVG Version: 6.00 Build 0)  -->
<svg version="1.1" id="Слой_1" xmlns="http://www.w3.org/2000/svg" xmlns:xlink="http://www.w3.org/1999/xlink" x="0px" y="0px"
	 viewBox="0 0 30.4 24.1" style="enable-background:new 0 0 30.4 24.1;" xml:space="preserve">
<g>
	<path d="M29,10c0,0.2-0.1,0.4-0.1,0.6c-0.4,1.5-1.7,2.7-3.2,2.9c-1.7,0.3-3.3-0.5-4.2-2c-0.6-1.1-0.7-2.3-0.2-3.5
		c0.7-1.6,2.1-2.5,3.8-2.5c1.5,0.1,2.7,0.8,3.4,2.2c0.2,0.4,0.3,0.8,0.4,1.2C29,9,29,9,29,9.1C29,9.4,29,9.7,29,10z M22.9,9.6
		c0,1.2,1,2.1,2.1,2.1c1.2,0,2.1-1,2.1-2.1c0-1.1-1-2.1-2.1-2.1C23.9,7.4,22.9,8.4,22.9,9.6z"/>
	<path d="M1.3,10.2c0.1-0.3,0.1-0.5,0.2-0.8C2,7.9,3.1,7,4.6,6.8c1.7-0.3,3.1,0.4,4,1.9c1.2,1.9,0.5,4.6-1.6,5.7
		c-1.8,0.9-4.1,0.3-5.2-1.4c-0.3-0.4-0.5-0.9-0.6-1.5c0-0.1,0-0.1-0.1-0.2C1.3,10.8,1.3,10.5,1.3,10.2z M5.2,12.8
		c1.1,0,2.1-0.9,2.1-2.1c0-1.2-0.9-2.1-2-2.2c-1.1,0-2.1,0.9-2.2,2.1C3.1,11.8,4.1,12.8,5.2,12.8z"/>
	<path d="M15.1,19.5c-2.2,0-4-1.8-4-4c0-2.2,1.8-4,4-4c2.2,0,4,1.8,4,4C19.1,17.7,17.3,19.5,15.1,19.5z M17.1,15.5
		c0-1.2-0.9-2.1-2.1-2.1c-1.2,0-2.1,0.9-2.1,2.1c0,1.1,1,2.1,2.1,2.1C16.2,17.6,17.1,16.6,17.1,15.5z"/>
	<path d="M13.7,1.4c0.9,0,1.8,0,2.8,0c0,3.3,0,6.6,0,9.9c-0.9-0.4-1.8-0.4-2.8,0C13.7,8,13.7,4.7,13.7,1.4z"/>
	<path d="M23.6,13.7c0.9,0.4,1.8,0.4,2.7-0.1c0,3.2,0,6.5,0,9.7c-0.9,0-1.8,0-2.7,0C23.6,20.1,23.6,16.9,23.6,13.7z"/>
	<path d="M6.6,23.3c-0.9,0-1.8,0-2.7,0c0-2.8,0-5.6,0-8.5c1.5,0.4,1.8,0.4,2.7-0.1C6.6,17.6,6.6,20.4,6.6,23.3z"/>
	<path d="M3.9,1.4c0.9,0,1.8,0,2.7,0c0,1.7,0,3.4,0,5.1c-0.9-0.4-1.8-0.4-2.7,0C3.9,4.8,3.9,3.1,3.9,1.4z"/>
	<path d="M23.6,5.4c0-1.3,0-2.7,0-4c0.9,0,1.8,0,2.8,0c0,1.3,0,2.6,0,4C25.5,5,24.6,5,23.6,5.4z"/>
	<path d="M13.7,19.6c0.9,0.4,1.8,0.5,2.8-0.1c0,1.3,0,2.5,0,3.8c-0.9,0-1.8,0-2.8,0C13.7,22.1,13.7,20.8,13.7,19.6z"/>
</g>
</svg>
