<?xml version="1.0" encoding="utf-8"?>
<!-- Generator: Adobe Illustrator 20.1.0, SVG Export Plug-In . SVG Version: 6.00 Build 0)  -->
<svg version="1.1" id="Слой_1" xmlns="http://www.w3.org/2000/svg" xmlns:xlink="http://www.w3.org/1999/xlink" x="0px" y="0px"
	 viewBox="0 0 13.5 11.9" style="enable-background:new 0 0 13.5 11.9;" xml:space="preserve">
<path d="M6.7,11.9c-1.3-1-2.7-1.9-4-3c-1-0.8-1.8-1.8-2.3-3.1c-0.4-1-0.5-1.9-0.3-3C0.5,1.2,2.2-0.1,4,0c1,0.1,1.9,0.5,2.6,1.2
	c0,0,0.1,0.1,0.1,0.1C7,1.1,7.3,0.9,7.6,0.6c2.2-1.5,5.4-0.2,5.8,2.5c0.2,1.3-0.1,2.5-0.8,3.6c-0.6,1-1.4,1.9-2.4,2.6
	c-1,0.7-1.9,1.4-2.9,2.1C7.1,11.5,6.9,11.7,6.7,11.9z M6.7,2.5C6.6,2.3,6.5,2.2,6.4,2C5.6,0.8,4.1,0.3,2.8,0.8
	c-1.2,0.5-2,1.4-2.1,2.7C0.6,4.4,0.8,5.2,1.2,6c0.5,1,1.3,1.9,2.2,2.6c1,0.8,2,1.5,3,2.2c0.4,0.3,0.4,0.3,0.7,0c1-0.7,2-1.4,3-2.2
	C10.9,7.9,11.7,7,12.3,6c0.4-0.8,0.6-1.7,0.5-2.7C12.5,1.7,11,0.5,9.4,0.7C8.4,0.8,7.6,1.2,7,2C6.9,2.2,6.8,2.3,6.7,2.5z"/>
</svg>
