<?xml version="1.0" encoding="utf-8"?>
<!-- Generator: Adobe Illustrator 20.1.0, SVG Export Plug-In . SVG Version: 6.00 Build 0)  -->
<svg version="1.1" id="Слой_1" xmlns="http://www.w3.org/2000/svg" xmlns:xlink="http://www.w3.org/1999/xlink" x="0px" y="0px"
	 viewBox="0 0 24.4 24.4" style="enable-background:new 0 0 24.4 24.4;" xml:space="preserve">
<path d="M1,13c0-0.5,0-1.1,0-1.6c0-0.1,0-0.2,0-0.2C1.1,10,1.4,8.9,1.9,7.8c1-2.2,2.5-4,4.6-5.2c1.2-0.7,2.4-1.2,3.8-1.4
	C10.6,1.1,11,1.1,11.4,1C12,1,12.5,1,13,1c0.3,0,0.5,0.1,0.8,0.1c1.8,0.3,3.5,0.9,5,2C22.5,6,24,9.8,23.2,14.4
	c-0.2,1.4-0.8,2.8-1.6,4c-1.3,2-3,3.4-5.2,4.3c-1.6,0.7-3.4,0.9-5.1,0.7C10,23.3,8.9,23,7.8,22.5c-2.2-1-4-2.5-5.2-4.6
	c-0.7-1.2-1.2-2.4-1.4-3.7C1.1,13.8,1.1,13.4,1,13z M18.6,7.5c-0.1-0.1-0.2-0.1-0.2-0.2c-0.1-0.2-0.2-0.2-0.3-0.2
	c-0.3,0-0.4,0-0.5-0.4c0-0.1-0.1-0.2-0.2-0.3c0-0.1-0.1-0.1-0.2-0.2C17.1,5.9,17,5.9,16.9,6c-0.1,0.1-0.3,0.2-0.5,0.3c0,0,0,0-0.1,0
	c-0.1-0.1-0.2-0.1-0.3-0.2c0.1-0.2,0-0.4-0.1-0.5c-0.4-0.2-0.8-0.4-1.2-0.4c-0.3,0-0.3,0.1-0.2,0.3c0,0.1,0.1,0.3,0,0.4
	c-0.1,0.2-0.1,0.3,0.1,0.4c0.3,0.2,0.3,0.3,0,0.5c0,0-0.1,0.1-0.1,0.1c-0.2,0.2-0.3,0.3-0.1,0.6c0,0,0.1,0.1,0,0.2
	c-0.1,0.2-0.4,0.2-0.6,0c-0.1-0.2-0.2-0.4-0.2-0.5C13.5,7.1,13.4,7,13.2,7C13,7,12.8,6.9,12.7,6.8c-0.3-0.2-0.7-0.3-1-0.2
	c-0.1-0.2-0.2-0.3-0.3-0.5c-0.1-0.4,0.3-0.8,0.5-1.1c0.3,0,0.6,0,0.8-0.3c0.3-0.4,0.3-0.4,0.7-0.3c0.1,0,0.3,0,0.3-0.1
	c0-0.2,0-0.4,0-0.5c-0.1-0.2-0.2-0.2-0.5-0.1c0,0.1-0.1,0.2-0.2,0.3c-0.2,0.3-0.3,0.3-0.5-0.1c-0.1-0.3-0.1-0.3-0.3-0.1
	c-0.2-0.1-0.3-0.2-0.5-0.3c0.1-0.1,0.1-0.2-0.1-0.3c-0.1-0.1-0.2-0.1-0.3-0.1c-0.1,0-0.1,0-0.2,0c-0.1,0-0.2,0.1-0.2,0.2
	c0,0,0.1,0.1,0.1,0.2c0.2,0.1,0.3,0.2,0.5,0.3c0,0,0,0.1,0,0.1c-0.3,0.1-0.5,0.2-0.4,0.6c0,0,0,0-0.1,0c-0.1-0.1-0.1-0.3-0.2-0.4
	c-0.3,0-0.6,0-1,0C9.5,4.1,9.4,4,9.5,3.7c0-0.1-0.2-0.3-0.3-0.3C8.8,3.6,8.4,3.7,8,3.9c0,0,0,0,0,0.1c0.1,0,0.1-0.1,0.2-0.1
	c0.2-0.1,0.3-0.1,0.5-0.2c0.3-0.1,0.4,0,0.6,0.3c-0.3,0-0.5,0-0.7,0.2c0,0.1,0,0.2,0.1,0.2c-0.1,0-0.2-0.1-0.2-0.1
	C8.1,4,7.9,3.9,7.5,4.1c-1.3,0.7-2.3,1.7-3.1,3c0,0.1-0.1,0.1-0.1,0.1c0.1,0.2,0.2,0.3,0.3,0.4c0.1,0.1,0.2,0.1,0.2,0.2
	C4.8,7.9,4.9,8,5,8.1c0.2,0.2,0.4,0.3,0.7,0.5c0,0,0,0.2,0,0.2c-0.1,0-0.1,0-0.2,0c0,0-0.1-0.1-0.2-0.1c0,0.1,0,0.2,0.1,0.3
	c0,0.1,0,0.2,0,0.3c-0.1,0.5-0.1,0.9,0,1.4c0.1,0.1,0.2,0.2,0.3,0.4c0.1,0.4,0.4,0.7,0.8,0.9c0.1,0.1,0.2,0.2,0.3,0.4
	c0.2,0.3,0.3,0.6,0.5,0.9c0,0.1,0,0.1,0.1,0.2c0,0.1,0,0.2,0.1,0.2c0.2,0.1,0.4,0.3,0.4,0.5c0,0,0,0.1,0.1,0.1c0-0.1,0-0.2,0-0.3
	c-0.1-0.3-0.3-0.6-0.5-0.9c-0.1-0.2-0.2-0.4-0.2-0.5c0,0,0,0,0.1-0.1c0.1,0.1,0.2,0.1,0.3,0.2c0.1,0.2,0.2,0.4,0.3,0.6
	c0.2,0.2,0.3,0.4,0.5,0.6c0.1,0.1,0.1,0.2,0.2,0.3C8.8,14.4,9,14.7,9,15.1c0,0.3,0.2,0.5,0.5,0.6c0.3,0.1,0.5,0.3,0.7,0.4
	c0.2,0.1,0.4,0.2,0.6,0.1c0.2-0.1,0.4,0,0.5,0.2c0.3,0.4,0.7,0.5,1,0.5c0.2,0.3,0.4,0.6,0.6,0.8c0.2,0.2,0.4,0.2,0.6,0.5
	c0.1,0.2,0.3,0.1,0.4-0.1c0-0.1,0-0.1,0-0.2c-0.2,0-0.3,0-0.4,0c-0.2-0.1-0.3-0.4-0.4-0.6c0,0,0.1-0.1,0.1-0.1
	c0.1,0,0.1-0.1,0.1-0.2c-0.1-0.2-0.2-0.5-0.4-0.8c-0.2,0.2-0.3,0.2-0.4,0.1c-0.1,0-0.2,0.1-0.3,0.1c0-0.1,0-0.1,0-0.2
	c0.1-0.3,0.2-0.6,0.3-0.8c0.1-0.2,0-0.3-0.2-0.3c-0.2,0-0.3,0.2-0.4,0.4c-0.1,0.1-0.1,0.3-0.2,0.3c-0.2,0.1-0.7,0-0.9-0.2
	c-0.2-0.3-0.3-0.6-0.3-1c0-0.2,0.1-0.5,0-0.7c0-0.2,0-0.3,0.1-0.4c0.1-0.1,0.2-0.2,0.3-0.3c0.1-0.1,0.4-0.1,0.6-0.1
	c0.1,0,0.2,0,0.3,0c0-0.1,0-0.2,0-0.3c0,0,0,0,0,0c0.1,0,0.2,0.1,0.3,0.1c0.2-0.1,0.4,0,0.7,0.1c0.1,0,0.2,0.1,0.3,0.1
	c0,0,0,0,0-0.1c0.1,0.2,0.1,0.3,0.2,0.5c0.1,0.1,0.1,0.3,0.2,0.4c0,0.1,0.1,0.1,0.2,0.1c0-0.1,0.1-0.1,0.1-0.2c0-0.2,0-0.5,0-0.7
	c0,0-0.1-0.1-0.1-0.1c-0.2-0.1-0.3-0.3-0.1-0.4c0.1-0.1,0.3-0.2,0.4-0.3c0.2-0.1,0.4-0.2,0.5-0.5c0-0.1,0.1-0.2,0.1-0.3
	c0,0-0.1-0.1-0.2-0.1c0.1-0.2,0.1-0.3,0.2-0.6c0.2,0.1,0.4,0.2,0.4,0c0-0.3,0.2-0.3,0.4-0.3c0.2-0.1,0.4-0.1,0.4-0.4
	c0-0.1,0.1-0.2,0.2-0.2c0.3-0.1,0.5-0.2,0.8-0.4C16.9,9.3,17,9.1,17,9c0-0.1-0.2-0.2-0.2-0.3c0.1,0,0.2-0.1,0.3-0.1c0,0,0-0.1,0-0.1
	c-0.1,0-0.2-0.1-0.3-0.1c-0.3,0-0.6,0.2-0.8,0.4c0.2-0.6,1.3-0.9,1.9-0.6C18,8.1,18.2,8,18.4,7.9C18.6,7.8,18.7,7.7,18.6,7.5z
	 M13.9,21.4c2-0.4,3.7-1.3,5.1-2.8c-0.2-0.1-0.3-0.1-0.5-0.1c-0.1,0-0.2-0.1-0.2-0.1c-0.1-0.3-0.3-0.4-0.5-0.5
	c-0.3-0.3-0.6-0.3-0.8-0.1c-0.2-0.1-0.5-0.2-0.7-0.4c-0.2-0.1-0.4-0.2-0.5,0c0-0.3-0.1-0.3-0.4-0.2c-0.3,0.2-0.6,0.3-0.7,0.7
	c-0.1,0-0.2-0.1-0.3-0.1c0,0.4,0.1,0.8,0.1,1.1c0,0.2,0,0.4-0.2,0.6c-0.1,0.1-0.2,0.2-0.3,0.4c-0.1,0.2-0.2,0.4,0,0.5
	c0.1,0.1,0.1,0.2,0,0.3C13.8,21,13.8,21.2,13.9,21.4z"/>
</svg>
